<svg xmlns="http://www.w3.org/2000/svg" width="109.712" height="308.304" viewBox="0 0 109.712 308.304">
  <g id="Group_445" data-name="Group 445" transform="translate(1373.712 -1745.914) rotate(90)">
    <circle id="Ellipse_24" data-name="Ellipse 24" cx="4.861" cy="4.861" r="4.861" transform="translate(1745.914 1264)" fill="#eed11c"/>
    <circle id="Ellipse_24-2" data-name="Ellipse 24" cx="4.861" cy="4.861" r="4.861" transform="translate(1770.912 1264)" fill="#eed11c"/>
    <circle id="Ellipse_24-3" data-name="Ellipse 24" cx="4.861" cy="4.861" r="4.861" transform="translate(1795.909 1264)" fill="#eed11c"/>
    <circle id="Ellipse_24-4" data-name="Ellipse 24" cx="4.861" cy="4.861" r="4.861" transform="translate(1820.907 1264)" fill="#eed11c"/>
    <circle id="Ellipse_24-5" data-name="Ellipse 24" cx="4.861" cy="4.861" r="4.861" transform="translate(1745.914 1288.998)" fill="#eed11c"/>
    <circle id="Ellipse_24-6" data-name="Ellipse 24" cx="4.861" cy="4.861" r="4.861" transform="translate(1770.912 1288.998)" fill="#eed11c"/>
    <circle id="Ellipse_24-7" data-name="Ellipse 24" cx="4.861" cy="4.861" r="4.861" transform="translate(1795.909 1288.998)" fill="#eed11c"/>
    <circle id="Ellipse_24-8" data-name="Ellipse 24" cx="4.861" cy="4.861" r="4.861" transform="translate(1820.907 1288.998)" fill="#eed11c"/>
    <circle id="Ellipse_24-9" data-name="Ellipse 24" cx="4.861" cy="4.861" r="4.861" transform="translate(1745.914 1313.995)" fill="#eed11c"/>
    <circle id="Ellipse_24-10" data-name="Ellipse 24" cx="4.861" cy="4.861" r="4.861" transform="translate(1770.912 1313.995)" fill="#eed11c"/>
    <circle id="Ellipse_24-11" data-name="Ellipse 24" cx="4.861" cy="4.861" r="4.861" transform="translate(1795.909 1313.995)" fill="#eed11c"/>
    <circle id="Ellipse_24-12" data-name="Ellipse 24" cx="4.861" cy="4.861" r="4.861" transform="translate(1820.907 1313.995)" fill="#eed11c"/>
    <circle id="Ellipse_24-13" data-name="Ellipse 24" cx="4.861" cy="4.861" r="4.861" transform="translate(1745.914 1338.993)" fill="#eed11c"/>
    <circle id="Ellipse_24-14" data-name="Ellipse 24" cx="4.861" cy="4.861" r="4.861" transform="translate(1770.912 1338.993)" fill="#eed11c"/>
    <circle id="Ellipse_24-15" data-name="Ellipse 24" cx="4.861" cy="4.861" r="4.861" transform="translate(1795.909 1338.993)" fill="#eed11c"/>
    <circle id="Ellipse_24-16" data-name="Ellipse 24" cx="4.861" cy="4.861" r="4.861" transform="translate(1820.907 1338.993)" fill="#eed11c"/>
    <circle id="Ellipse_24-17" data-name="Ellipse 24" cx="4.861" cy="4.861" r="4.861" transform="translate(1745.914 1363.991)" fill="#eed11c"/>
    <circle id="Ellipse_24-18" data-name="Ellipse 24" cx="4.861" cy="4.861" r="4.861" transform="translate(1770.912 1363.991)" fill="#eed11c"/>
    <circle id="Ellipse_24-19" data-name="Ellipse 24" cx="4.861" cy="4.861" r="4.861" transform="translate(1795.909 1363.991)" fill="#eed11c"/>
    <circle id="Ellipse_24-20" data-name="Ellipse 24" cx="4.861" cy="4.861" r="4.861" transform="translate(1820.907 1363.991)" fill="#eed11c"/>
    <circle id="Ellipse_24-21" data-name="Ellipse 24" cx="4.861" cy="4.861" r="4.861" transform="translate(1845.905 1264)" fill="#eed11c"/>
    <ellipse id="Ellipse_24-22" data-name="Ellipse 24" cx="4.166" cy="4.861" rx="4.166" ry="4.861" transform="translate(1870.902 1264)" fill="#eed11c"/>
    <circle id="Ellipse_24-23" data-name="Ellipse 24" cx="4.861" cy="4.861" r="4.861" transform="translate(1895.9 1264)" fill="#eed11c"/>
    <ellipse id="Ellipse_24-24" data-name="Ellipse 24" cx="4.166" cy="4.861" rx="4.166" ry="4.861" transform="translate(1920.898 1264)" fill="#eed11c"/>
    <circle id="Ellipse_24-25" data-name="Ellipse 24" cx="4.861" cy="4.861" r="4.861" transform="translate(1944.507 1264)" fill="#eed11c"/>
    <circle id="Ellipse_24-26" data-name="Ellipse 24" cx="4.861" cy="4.861" r="4.861" transform="translate(1970.893 1264)" fill="#eed11c"/>
    <ellipse id="Ellipse_24-27" data-name="Ellipse 24" cx="4.166" cy="4.861" rx="4.166" ry="4.861" transform="translate(1995.891 1264)" fill="#eed11c"/>
    <circle id="Ellipse_24-28" data-name="Ellipse 24" cx="4.861" cy="4.861" r="4.861" transform="translate(2019.499 1264)" fill="#eed11c"/>
    <circle id="Ellipse_24-29" data-name="Ellipse 24" cx="4.861" cy="4.861" r="4.861" transform="translate(2044.497 1264)" fill="#eed11c"/>
    <circle id="Ellipse_24-30" data-name="Ellipse 24" cx="4.861" cy="4.861" r="4.861" transform="translate(1845.905 1288.998)" fill="#eed11c"/>
    <ellipse id="Ellipse_24-31" data-name="Ellipse 24" cx="4.166" cy="4.861" rx="4.166" ry="4.861" transform="translate(1870.902 1288.998)" fill="#eed11c"/>
    <circle id="Ellipse_24-32" data-name="Ellipse 24" cx="4.861" cy="4.861" r="4.861" transform="translate(1895.9 1288.998)" fill="#eed11c"/>
    <ellipse id="Ellipse_24-33" data-name="Ellipse 24" cx="4.166" cy="4.861" rx="4.166" ry="4.861" transform="translate(1920.898 1288.998)" fill="#eed11c"/>
    <circle id="Ellipse_24-34" data-name="Ellipse 24" cx="4.861" cy="4.861" r="4.861" transform="translate(1944.507 1288.998)" fill="#eed11c"/>
    <circle id="Ellipse_24-35" data-name="Ellipse 24" cx="4.861" cy="4.861" r="4.861" transform="translate(1970.893 1288.998)" fill="#eed11c"/>
    <ellipse id="Ellipse_24-36" data-name="Ellipse 24" cx="4.166" cy="4.861" rx="4.166" ry="4.861" transform="translate(1995.891 1288.998)" fill="#eed11c"/>
    <circle id="Ellipse_24-37" data-name="Ellipse 24" cx="4.861" cy="4.861" r="4.861" transform="translate(2019.499 1288.998)" fill="#eed11c"/>
    <circle id="Ellipse_24-38" data-name="Ellipse 24" cx="4.861" cy="4.861" r="4.861" transform="translate(2044.497 1288.998)" fill="#eed11c"/>
    <circle id="Ellipse_24-39" data-name="Ellipse 24" cx="4.861" cy="4.861" r="4.861" transform="translate(1845.905 1313.995)" fill="#eed11c"/>
    <ellipse id="Ellipse_24-40" data-name="Ellipse 24" cx="4.166" cy="4.861" rx="4.166" ry="4.861" transform="translate(1870.902 1313.995)" fill="#eed11c"/>
    <circle id="Ellipse_24-41" data-name="Ellipse 24" cx="4.861" cy="4.861" r="4.861" transform="translate(1895.9 1313.995)" fill="#eed11c"/>
    <ellipse id="Ellipse_24-42" data-name="Ellipse 24" cx="4.166" cy="4.861" rx="4.166" ry="4.861" transform="translate(1920.898 1313.995)" fill="#eed11c"/>
    <circle id="Ellipse_24-43" data-name="Ellipse 24" cx="4.861" cy="4.861" r="4.861" transform="translate(1944.507 1313.995)" fill="#eed11c"/>
    <circle id="Ellipse_24-44" data-name="Ellipse 24" cx="4.861" cy="4.861" r="4.861" transform="translate(1970.893 1313.995)" fill="#eed11c"/>
    <ellipse id="Ellipse_24-45" data-name="Ellipse 24" cx="4.166" cy="4.861" rx="4.166" ry="4.861" transform="translate(1995.891 1313.995)" fill="#eed11c"/>
    <circle id="Ellipse_24-46" data-name="Ellipse 24" cx="4.861" cy="4.861" r="4.861" transform="translate(2019.499 1313.995)" fill="#eed11c"/>
    <circle id="Ellipse_24-47" data-name="Ellipse 24" cx="4.861" cy="4.861" r="4.861" transform="translate(2044.497 1313.995)" fill="#eed11c"/>
    <circle id="Ellipse_24-48" data-name="Ellipse 24" cx="4.861" cy="4.861" r="4.861" transform="translate(1845.905 1338.993)" fill="#eed11c"/>
    <ellipse id="Ellipse_24-49" data-name="Ellipse 24" cx="4.166" cy="4.861" rx="4.166" ry="4.861" transform="translate(1870.902 1338.993)" fill="#eed11c"/>
    <circle id="Ellipse_24-50" data-name="Ellipse 24" cx="4.861" cy="4.861" r="4.861" transform="translate(1895.9 1338.993)" fill="#eed11c"/>
    <ellipse id="Ellipse_24-51" data-name="Ellipse 24" cx="4.166" cy="4.861" rx="4.166" ry="4.861" transform="translate(1920.898 1338.993)" fill="#eed11c"/>
    <circle id="Ellipse_24-52" data-name="Ellipse 24" cx="4.861" cy="4.861" r="4.861" transform="translate(1944.507 1338.993)" fill="#eed11c"/>
    <circle id="Ellipse_24-53" data-name="Ellipse 24" cx="4.861" cy="4.861" r="4.861" transform="translate(1970.893 1338.993)" fill="#eed11c"/>
    <ellipse id="Ellipse_24-54" data-name="Ellipse 24" cx="4.166" cy="4.861" rx="4.166" ry="4.861" transform="translate(1995.891 1338.993)" fill="#eed11c"/>
    <circle id="Ellipse_24-55" data-name="Ellipse 24" cx="4.861" cy="4.861" r="4.861" transform="translate(2019.499 1338.993)" fill="#eed11c"/>
    <circle id="Ellipse_24-56" data-name="Ellipse 24" cx="4.861" cy="4.861" r="4.861" transform="translate(2044.497 1338.993)" fill="#eed11c"/>
    <circle id="Ellipse_24-57" data-name="Ellipse 24" cx="4.861" cy="4.861" r="4.861" transform="translate(1845.905 1363.991)" fill="#eed11c"/>
    <ellipse id="Ellipse_24-58" data-name="Ellipse 24" cx="4.166" cy="4.861" rx="4.166" ry="4.861" transform="translate(1870.902 1363.991)" fill="#eed11c"/>
    <circle id="Ellipse_24-59" data-name="Ellipse 24" cx="4.861" cy="4.861" r="4.861" transform="translate(1895.9 1363.991)" fill="#eed11c"/>
    <ellipse id="Ellipse_24-60" data-name="Ellipse 24" cx="4.166" cy="4.861" rx="4.166" ry="4.861" transform="translate(1920.898 1363.991)" fill="#eed11c"/>
    <circle id="Ellipse_24-61" data-name="Ellipse 24" cx="4.861" cy="4.861" r="4.861" transform="translate(1944.507 1363.991)" fill="#eed11c"/>
    <circle id="Ellipse_24-62" data-name="Ellipse 24" cx="4.861" cy="4.861" r="4.861" transform="translate(1970.893 1363.991)" fill="#eed11c"/>
    <ellipse id="Ellipse_24-63" data-name="Ellipse 24" cx="4.166" cy="4.861" rx="4.166" ry="4.861" transform="translate(1995.891 1363.991)" fill="#eed11c"/>
    <circle id="Ellipse_24-64" data-name="Ellipse 24" cx="4.861" cy="4.861" r="4.861" transform="translate(2019.499 1363.991)" fill="#eed11c"/>
    <circle id="Ellipse_24-65" data-name="Ellipse 24" cx="4.861" cy="4.861" r="4.861" transform="translate(2044.497 1363.991)" fill="#eed11c"/>
  </g>
</svg>
